<?xml version="1.0" standalone="no"?>
<!DOCTYPE svg PUBLIC "-//W3C//DTD SVG 20010904//EN"
 "http://www.w3.org/TR/2001/REC-SVG-20010904/DTD/svg10.dtd">
<svg version="1.0" xmlns="http://www.w3.org/2000/svg"
 width="873.000000pt" height="286.000000pt" viewBox="0 0 873.000000 286.000000"
 preserveAspectRatio="xMidYMid meet">
<metadata>
Created by potrace 1.16, written by Peter Selinger 2001-2019
</metadata>
<g transform="translate(0.000000,286.000000) scale(0.100000,-0.100000)"
fill="#000000" stroke="none">
<path d="M1240 2255 c0 -4 199 -308 408 -623 67 -101 122 -187 122 -192 0 -11
-582 -14 -593 -4 -6 6 37 66 206 294 l78 105 -248 3 c-234 2 -249 1 -263 -17
-8 -10 -40 -59 -71 -107 -93 -147 -277 -432 -315 -490 -20 -30 -34 -57 -32
-59 3 -3 431 -4 951 -3 l947 3 -209 325 c-215 334 -346 538 -440 686 l-53 84
-244 0 c-134 0 -244 -2 -244 -5z"/>
<path d="M1890 838 c-58 -31 -80 -73 -80 -158 1 -116 47 -171 147 -177 45 -3
65 0 90 16 39 24 67 65 59 86 -8 21 -33 19 -40 -3 -4 -11 -18 -30 -32 -43 -33
-31 -101 -33 -134 -4 -66 59 -66 202 1 249 14 9 43 16 70 16 42 0 51 -4 76
-34 19 -23 33 -32 45 -27 17 6 16 8 -2 39 -38 62 -123 79 -200 40z"/>
<path d="M4025 843 c-71 -38 -107 -125 -86 -209 16 -63 37 -92 84 -116 79 -40
184 -10 224 65 27 50 24 152 -6 201 -42 67 -147 96 -216 59z m157 -52 c30 -27
33 -34 36 -104 4 -74 3 -76 -30 -113 -30 -32 -41 -37 -81 -38 -32 -1 -54 5
-74 20 -44 33 -54 61 -51 138 4 63 7 71 36 97 26 24 41 29 82 29 41 0 56 -5
82 -29z"/>
<path d="M5395 846 c-70 -31 -102 -100 -93 -197 5 -53 26 -89 72 -123 39 -30
143 -30 182 0 57 42 69 69 69 154 0 85 -12 112 -68 154 -33 25 -121 32 -162
12z m135 -41 c60 -31 77 -158 30 -225 -64 -89 -202 -45 -217 70 -14 100 33
170 114 170 24 0 57 -7 73 -15z"/>
<path d="M6135 846 c-69 -30 -102 -100 -93 -197 5 -53 26 -90 72 -123 39 -30
156 -30 206 0 34 19 35 22 38 87 l3 67 -71 0 c-63 0 -70 -2 -70 -20 0 -17 7
-20 50 -20 l50 0 0 -35 c0 -29 -5 -37 -32 -51 -71 -37 -168 -11 -194 51 -31
74 -9 172 45 199 16 9 51 16 77 16 41 0 51 -5 81 -36 26 -28 37 -34 46 -25 17
17 -13 62 -54 83 -40 21 -111 23 -154 4z"/>
<path d="M8003 844 c-54 -27 -66 -91 -25 -137 9 -9 41 -24 71 -33 119 -33 141
-51 119 -98 -27 -60 -149 -52 -178 11 -16 36 -18 37 -40 23 -12 -8 -12 -14 3
-45 42 -88 216 -88 253 0 29 71 -4 112 -113 139 -99 25 -131 65 -81 100 45 32
148 11 148 -30 0 -8 9 -14 20 -14 11 0 20 7 20 16 0 68 -116 108 -197 68z"/>
<path d="M460 835 c0 -12 13 -15 55 -15 l55 0 0 -155 c0 -148 1 -155 20 -155
18 0 20 8 22 153 l3 152 58 3 c42 2 57 7 57 17 0 12 -24 15 -135 15 -113 0
-135 -2 -135 -15z"/>
<path d="M1140 680 l0 -170 130 0 c109 0 130 2 130 15 0 12 -19 15 -110 15
l-110 0 0 65 0 65 100 0 c82 0 100 3 100 15 0 12 -18 15 -100 15 l-100 0 0 60
0 60 105 0 c87 0 105 3 105 15 0 13 -21 15 -125 15 l-125 0 0 -170z"/>
<path d="M2530 680 c0 -163 1 -170 20 -170 18 0 20 7 20 80 l0 80 95 0 95 0 0
-80 c0 -73 2 -80 20 -80 19 0 20 7 20 170 0 163 -1 170 -20 170 -18 0 -20 -7
-20 -70 l0 -70 -95 0 -95 0 0 70 c0 63 -2 70 -20 70 -19 0 -20 -7 -20 -170z"/>
<path d="M3240 680 c0 -163 1 -170 20 -170 18 0 20 8 22 134 l3 134 90 -134
c71 -107 94 -134 112 -134 l23 0 0 170 c0 163 -1 170 -20 170 -18 0 -20 -8
-22 -134 l-3 -135 -89 135 c-72 108 -94 134 -113 134 l-23 0 0 -170z"/>
<path d="M4680 680 l0 -170 110 0 c91 0 110 3 110 15 0 12 -17 15 -90 15 l-90
0 0 155 c0 148 -1 155 -20 155 -19 0 -20 -7 -20 -170z"/>
<path d="M7270 680 l0 -170 130 0 c109 0 130 2 130 15 0 12 -18 15 -105 15
l-105 0 0 65 0 65 95 0 c78 0 95 3 95 15 0 12 -17 15 -95 15 l-95 0 0 60 0 60
105 0 c87 0 105 3 105 15 0 13 -21 15 -130 15 l-130 0 0 -170z"/>
</g>
</svg>
